<?xml version="1.0" encoding="utf-8"?>
<!-- Generator: Adobe Illustrator 18.0.0, SVG Export Plug-In . SVG Version: 6.00 Build 0)  -->
<!DOCTYPE svg PUBLIC "-//W3C//DTD SVG 1.1//EN" "http://www.w3.org/Graphics/SVG/1.1/DTD/svg11.dtd">
<svg version="1.1" id="Layer_1" xmlns="http://www.w3.org/2000/svg" xmlns:xlink="http://www.w3.org/1999/xlink" x="0px" y="0px"
	 viewBox="0 0 163.5 158" enable-background="new 0 0 163.5 158" xml:space="preserve">
<g>
	<path d="M126.3,30.3c4.1-2.7,8.1-5.6,12.2-8.1c1-0.6,2.5-0.4,3.8-0.6c-0.6,1.1-1,2.4-1.9,3.1c-7.8,6.6-15.6,13.1-23.5,19.7
		c-2.1,1.7-4.1,3.4-6.2,5.1c0.3,0.3,0.7,0.7,1,1c10.5-8.5,20.9-16.9,31.4-25.4c0.4,0.4,0.8,0.8,1.1,1.2
		c-3.2,9.6-11.6,15.3-17.9,22.8c5.9-4.6,11.8-9.3,17.6-13.9c0.6,0.6,1.2,1.2,1.8,1.8c-3.9,4.4-7.9,8.8-11.8,13.2
		c0.1,0.1,0.2,0.3,0.3,0.4c2.1-1.4,4.2-2.9,6.2-4.3c0.3,0.3,0.7,0.7,1,1c-2.1,6.3-8.5,9.4-12,15c2.5-1.7,5-3.4,7.5-5.1
		c0.4,0.4,0.9,0.9,1.3,1.3c-1.6,1.9-3.3,3.8-5.2,5.9c4.4,1.4,1.9,3.3,0.2,5.1c-8.8,8.6-17.4,17.5-26.6,25.6c-2,1.8-5.8,4.5-9.7,1.3
		c-0.8-0.6-2.4-0.2-4.6-0.3c1.5-2.7,2.6-4.9,3.2-6c-0.6-2.7-1-4.5-1.4-6.3c-1,0.3-2.7,0.8-4.4,1.3c-0.8-2.2-1.5-4-2.2-6
		c-1.9,1-3.5,1.9-5.7,3.2c-1.5-10.2,1.4-18.6,6.4-26.6c-0.4-0.2-0.8-0.4-1.2-0.6c-1.8,2.8-3.5,5.6-5.4,8.3c-1.5,2.1-1.7,6.8-6.3,3.1
		c-0.5-0.4-2.2,0.8-4.6,0.7c1-2.3,2.1-4.6,3.4-7.5c-2.6,1.8-4.9,3.4-7.1,4.9c-0.3-0.2-0.7-0.4-1-0.6c1.5-4.6-2.4-10.1,2.7-14.4
		c-2.9,1.9-5.7,3.7-8.6,5.6c-0.3-0.4-0.6-0.7-0.9-1.1c0.5-1.4,1-2.8,1.7-4.9c-2.6,2.1-4.8,3.7-7.6,6c0.5-4.3,0.8-7.5,1.2-11
		c-1.5,0.7-2.7,1.2-5.1,2.2c1-2.9,1.7-4.7,2.3-6.6c-4.5-4.8-2-13.1,4.2-15.8c3.3-1.4,5.8-4.6,8.7-6.8c2.6-2,6.9-1,7.8,0.6
		c3.7,0.4,6.5,0.7,9.9,1.1c-1.4,2.4-2.2,3.8-3.7,6.4c3.4-2.3,5.7-3.9,8.1-5.5c0.4,0.4,0.8,0.7,1.1,1.1c-0.7,1.3-1.2,2.8-2.1,3.9
		c-3.7,4.5-7.6,8.9-11.2,13.5c-1,1.3-1.3,3.1-1.9,4.7c0.4,0.2,0.8,0.4,1.2,0.6c1.1-1.4,2.1-2.7,3.2-4.1c0.6-0.7,1.3-2,1.8-1.9
		c6.1,1.3,7.9-4.8,12-6.8c0.9-0.4,1.8-1,2.6-1.5c0.4,0.2,0.8,0.5,1.2,0.7c-0.7,1.3-1.1,2.8-2.1,3.8c-4.8,5.2-9.8,10.2-14.6,15.3
		c-1.1,1.1-2,2.5-2.3,4.3c2.1-2.2,4.2-4.4,6.5-6.5c4.6-4.3,9.1-8.7,13.9-12.8c1.2-1,3.2-0.9,5.1-0.4c6.3-5,12.6-10.1,18.9-15.1
		c0.2-0.1,0.8,0.3,2.2,1c-4.9,5.2-9.5,10.1-14.1,15c0.3,0.3,0.5,0.6,0.8,0.9c2.9-2.5,5.7-5.2,8.8-7.5c1.3-1,3.3-1.1,4.9-1.8
		c1.3-0.6,2.5-1.4,3.7-2.2c2.7-1.8,5.4-3.6,8.1-5.4c0.4,0.5,0.8,1,1.2,1.5C132.6,23.8,129.5,27.1,126.3,30.3
		c-5.2,4.8-10.5,9.5-15.7,14.2c0.1,0.1,0.2,0.2,0.3,0.3C116,39.9,121.1,35.1,126.3,30.3z M93.7,57c-0.2-0.2-0.5-0.5-0.7-0.7
		c-5.2,3-13.2,11.2-13.6,13.2C83.8,65.6,88.8,61.3,93.7,57z M94.8,83c-0.2-0.2-0.4-0.4-0.6-0.6c-2.7,2.9-5.5,5.8-8.2,8.7
		c0.2,0.2,0.5,0.4,0.7,0.7C89.3,88.9,92,86,94.8,83z"/>
</g>
<g>
	<g>
		<path d="M160.8,52.8c0.2-0.7,0.3-1.3,0.4-2c0.1-0.7,0.1-1.3,0.2-2l0-1l-0.1-1c0-0.7-0.1-1.3-0.2-2l-0.2-1l-0.3-1
			c-0.2-0.6-0.4-1.3-0.6-1.9c-0.2-0.6-0.5-1.2-0.8-1.8c-0.3-0.6-0.6-1.2-0.9-1.7c-0.4-0.6-0.7-1.1-1.1-1.7c-0.4-0.5-0.8-1.1-1.2-1.6
			c-0.4-0.5-0.9-1-1.3-1.5c-0.5-0.5-0.9-0.9-1.4-1.4c-1.9-1.7-4.2-3.1-6.5-4.1l-0.3-0.1l-0.2-0.4c-0.5-0.8-1.1-1.6-1.8-2.4
			c-0.3-0.4-0.6-0.8-1-1.1c-0.3-0.3-0.7-0.7-1.1-1.1c-0.4-0.4-0.7-0.7-1.1-1c-0.4-0.3-0.8-0.6-1.2-0.9c-0.8-0.6-1.6-1.2-2.4-1.7
			c-0.8-0.5-1.7-0.9-2.6-1.4c-0.5-0.2-0.9-0.4-1.4-0.5c-0.5-0.2-0.9-0.3-1.4-0.4c-0.9-0.3-1.9-0.5-2.8-0.6c-0.5-0.1-0.9-0.1-1.4-0.1
			c-0.5,0-0.9,0-1.4,0l-0.6,0l-0.5-0.4c-2-1.5-4.3-2.6-6.6-3.6c-2.3-0.9-4.8-1.6-7.3-2.1c-0.6-0.1-1.3-0.2-1.9-0.3
			c-0.7-0.1-1.3-0.1-1.9-0.2c-1.3-0.1-2.5-0.1-3.8-0.1c-2.5,0.1-5,0.4-7.4,1l-0.8,0.2l-0.9-0.4c-1.8-0.7-3.7-1.2-5.6-1.4
			c-1-0.1-1.9-0.1-2.9-0.1c-0.5,0-1,0-1.5,0.1c-0.5,0-1,0.1-1.4,0.2c-0.6,0.1-1,0.2-1.5,0.3c-0.5,0.1-0.9,0.2-1.4,0.4
			c-0.9,0.3-1.8,0.6-2.7,1c-1.8,0.8-3.4,1.8-4.8,3l-1.4,1.2L70,13.7c-0.6-0.2-1.1-0.4-1.7-0.6c-0.6-0.2-1.2-0.3-1.8-0.4
			c-0.6-0.1-1.2-0.2-1.8-0.2c-0.6,0-1.2-0.1-1.8-0.1c-1.2,0-2.5,0.2-3.7,0.4c-0.6,0.1-1.2,0.3-1.8,0.4c-0.6,0.2-1.2,0.4-1.8,0.6
			l-0.9,0.4l-0.9,0.4L53,14.9l-0.8,0.5c-1.1,0.6-2.1,1.3-3,2.1c-1.9,1.6-3.5,3.5-4.6,5.6l-0.8,1.5l-1.7,0.4
			c-2.2,0.5-4.4,1.5-6.4,2.8c-1,0.6-2,1.4-2.8,2.2c-0.2,0.2-0.4,0.4-0.7,0.6L32,30.7l-0.4,0.4c-0.5,0.5-0.9,0.9-1.2,1.3
			c-0.4,0.5-0.8,0.9-1.1,1.4c-0.4,0.5-0.7,1-1,1.5c-0.3,0.5-0.6,1-0.9,1.5c-0.3,0.5-0.5,1.1-0.7,1.6c-0.2,0.5-0.4,1.1-0.6,1.6
			c-0.2,0.5-0.3,1.1-0.4,1.7c-0.1,0.6-0.2,1.1-0.2,1.7c-0.1,0.6-0.1,1.1-0.1,1.6l0,2.3l-2,1.2c-0.6,0.3-1.2,0.7-1.7,1.1
			c-0.3,0.2-0.5,0.4-0.8,0.6c-0.3,0.2-0.5,0.4-0.8,0.7c-0.3,0.2-0.5,0.5-0.7,0.7c-0.2,0.2-0.4,0.5-0.7,0.7c-0.2,0.2-0.4,0.5-0.6,0.8
			c-0.2,0.2-0.4,0.5-0.6,0.8c-0.2,0.3-0.3,0.5-0.5,0.8c-0.2,0.3-0.3,0.6-0.4,0.8c-0.2,0.3-0.2,0.6-0.4,0.8c-0.1,0.3-0.2,0.6-0.3,0.9
			c-0.2,0.6-0.3,1.2-0.4,1.7l-0.1,0.9l0,0.9l0,1.4l-0.7,1c-1,1.5-1.7,3.1-2.3,4.8c-0.1,0.4-0.3,0.9-0.4,1.3l-0.2,0.7L12,70.4
			c-0.1,0.5-0.2,1.1-0.2,1.5c-0.1,0.4-0.1,0.9-0.1,1.3c-0.1,1.8,0,3.6,0.3,5.3c0.3,1.7,0.9,3.4,1.7,4.9l0.5,0.9l0,1.2l0,1.4l0.1,1.4
			c0.1,0.5,0.2,0.9,0.2,1.4c0.1,0.5,0.2,0.9,0.3,1.4c0.1,0.4,0.3,0.9,0.4,1.3l0.5,1.3l0.6,1.2c0.2,0.4,0.5,0.8,0.7,1.1
			c0.3,0.3,0.5,0.7,0.8,1c0.3,0.3,0.6,0.7,0.9,0.9c0.3,0.3,0.6,0.6,0.9,0.8l0.5,0.4l0.5,0.3c0.3,0.2,0.7,0.4,1.1,0.6
			c0.3,0.2,0.7,0.3,1.1,0.5c0.4,0.1,0.8,0.2,1.2,0.3l0,0l0,0l0,0l0,0c0.2,0-0.3,0-0.2,0l0.1,0l0.2,0l0.4,0.1l0.8,0.1l4.2,0.6
			l-0.6,4.1c-0.2,1.5-0.2,3,0.1,4.4l0,0.1l0,0.1l0,0l0,0l0,0c0-0.1,0.1,0.2-0.1-0.2l0.1,0.3l0.2,0.7l0.2,0.7
			c0.1,0.2,0.1,0.5,0.2,0.6c0.3,0.6,0.4,1.1,0.8,1.8c0.2,0.3,0.3,0.7,0.5,1l0.6,0.9c0.2,0.3,0.5,0.6,0.7,0.9
			c0.3,0.3,0.5,0.6,0.8,0.9c0.6,0.5,1.1,1.1,1.8,1.5l0.9,0.7l1,0.6c0.7,0.4,1.4,0.7,2.1,1.1c0.7,0.3,1.5,0.6,2.3,0.9
			c0.8,0.2,1.6,0.5,2.4,0.6c0.8,0.1,1.6,0.3,2.4,0.4l1.2,0.1c0.4,0,0.8,0,1.2,0c0.4,0,0.8,0,1.2,0l1.2-0.1c0.8,0,1.7-0.2,2.5-0.3
			l0.6-0.1l0.2,0c0,0-0.2,0.1-0.1,0l0,0l0,0l0,0l0.1,0l0.4-0.1l1.4-0.3l0.3-0.1l4,1.9c0.1,0,0.1,0.1,0.1,0.1c0,0,0,0,0,0
			c0,0,0,0,0,0c0,0,0,0,0,0c0,0,0,0,0,0c0,0,0.1,0,0.2,0.1c0,0,0.1,0,0.1,0c0,0,0.1,0,0.2,0c0.1,0,0.2,0,0.4,0c0.1,0,0.3,0,0.5,0
			l0.2,0c0,0,0.2,0,0.1,0l5.3,3.8l-0.1,10.8l0,1.4l0,0.6l0,0.1c0,0,0,0,0,0l0,0c0,0,0,0.1,0,0.1c0,0.2,0.1,0.4,0.3,0.6l3.4,3.7
			l3.5,3.8L75,150l0.1,0.1l0,0l0,0c-0.1-0.1-0.2-0.2-0.3-0.2c-0.1-0.1-0.2-0.1-0.3-0.1c-0.2-0.1-0.4,0-0.6,0
			c-0.3,0.1-0.6,0.4-0.7,0.8c0,0.1,0,0.2,0,0.2c0,0,0,0,0,0l0-0.1l0-0.2l0-0.3l0-1.4l0-2.7l0.1-5.4l0-2.7l0-1.4l0-0.2l0-0.3l0-0.1
			l0-0.3l0-0.7l0.1-1.4l0.2-1.5c0.1-1,0.3-1.9,0.4-2.9c0.8-3.8,2-7.7,4.2-11.3c1.1-1.8,2.5-3.4,4.3-4.8c0.4-0.3,0.9-0.7,1.4-1
			l0.5-0.3l0.6-0.4c0.2-0.1,0.3-0.2,0.4-0.3c0.1-0.1,0.2-0.1,0.3-0.2c0.2-0.2,0.4-0.4,0.6-0.7c0.8-1,1.4-2.2,1.7-3.6
			c0.4-1.4,0.5-3,0.5-4.7l0-5l4.3,2.3c1.7,0.9,3.8,1.7,5.9,2.2c2.1,0.5,4.3,0.8,6.4,0.9c0.5,0,1.1,0,1.6,0c0.3,0,0.5,0,0.8,0l0.4,0
			l0,0c-0.2,0-0.1,0-0.1,0l0,0l0,0l0.1,0l0.2,0l3.5-0.5c0.6-0.1,1.1-0.2,1.6-0.3l1.6-0.4c1.1-0.2,2.1-0.6,3.1-0.9
			c0.5-0.2,1.1-0.3,1.6-0.5l1.5-0.7c1-0.4,1.9-1,2.9-1.6l0.7-0.4l0.6-0.5l1.3-1c0.4-0.3,0.8-0.7,1.2-1.1l0.6-0.6
			c0.2-0.2,0.4-0.4,0.5-0.6c0.3-0.4,0.7-0.8,1-1.2l0.9-1.3c0.6-0.9,1.1-1.9,1.6-2.9c0.2-0.5,0.5-1,0.6-1.5c0.2-0.5,0.4-1,0.5-1.6
			c0.2-0.5,0.3-1.1,0.5-1.6l0.2-0.9l0.3-1l0.3-1.2l1.3,0.1l1.4,0.1c0.5,0,0.9,0,1.4,0c0.5,0,0.9,0,1.4-0.1c0.4-0.1,0.9-0.1,1.4-0.2
			c0.9-0.2,1.8-0.4,2.6-0.7c0.4-0.1,0.9-0.3,1.3-0.5c0.4-0.2,0.8-0.4,1.2-0.6c0.4-0.2,0.8-0.5,1.2-0.7c0.4-0.3,0.8-0.5,1.1-0.8
			c0.3-0.3,0.7-0.6,1-0.9c0.3-0.3,0.6-0.6,0.9-1c0.3-0.3,0.6-0.7,0.8-1.1c0.3-0.4,0.5-0.8,0.7-1.2c0.4-0.8,0.8-1.7,1.1-2.5l0.1-0.3
			l0.3-0.1c1.4-0.8,2.7-1.8,3.8-3c0.6-0.6,1.1-1.2,1.5-1.9c0.4-0.7,0.8-1.4,1.1-2.2C161.7,59.6,161.7,56.1,160.8,52.8z M160.8,52.8
			c1.2,3.2,1.4,6.8,0.4,10.2c-0.3,0.9-0.6,1.6-1,2.4c-0.4,0.8-0.9,1.5-1.4,2.2c-1.1,1.4-2.5,2.6-4,3.6l0.4-0.5c-0.2,1-0.6,2-1,2.9
			c-0.2,0.5-0.4,0.9-0.7,1.4c-0.3,0.4-0.5,0.9-0.9,1.3c-0.3,0.4-0.6,0.8-1,1.2c-0.3,0.4-0.7,0.8-1.1,1.1c-0.4,0.4-0.8,0.7-1.2,1
			c-0.4,0.3-0.9,0.6-1.3,0.9c-0.5,0.3-0.9,0.5-1.4,0.8c-0.5,0.2-0.9,0.5-1.4,0.6c-1,0.4-2,0.7-3,0.9c-0.5,0.1-1,0.2-1.5,0.3
			c-0.5,0.1-1,0.1-1.6,0.2c-0.5,0-1,0.1-1.6,0.1l-1.6,0l1.6-1.1l-0.3,1.6c-0.1,0.6-0.2,1.2-0.4,1.8c-0.1,0.6-0.3,1.2-0.5,1.8
			c-0.2,0.6-0.4,1.2-0.6,1.8c-0.4,1.2-1,2.3-1.6,3.4l-1,1.6c-0.4,0.5-0.8,1-1.1,1.5c-0.2,0.3-0.4,0.5-0.6,0.8l-0.7,0.7
			c-0.4,0.5-0.9,0.9-1.3,1.4l-1.5,1.2l-0.7,0.6l-0.8,0.5c-1.1,0.7-2.1,1.4-3.3,2l-1.7,0.9c-0.6,0.3-1.2,0.5-1.7,0.7
			c-1.2,0.4-2.3,0.9-3.6,1.2l-1.8,0.5c-0.6,0.2-1.2,0.3-1.8,0.4l-3.5,0.6l-0.2,0l-0.1,0l-0.2,0l-0.5,0.1c-0.3,0-0.6,0.1-1,0.1
			c-0.6,0.1-1.3,0.1-1.9,0.1c-2.6,0-5.1-0.2-7.6-0.7c-2.5-0.5-5-1.2-7.4-2.4l4.3-2.6c0.1,1.9,0,4-0.4,6.1c-0.4,2.1-1.3,4.2-2.7,6.1
			c-0.3,0.5-0.8,0.9-1.2,1.3l-0.8,0.7c-0.3,0.2-0.5,0.5-0.7,0.5l-1.2,0.8c-0.3,0.2-0.5,0.4-0.8,0.6c-1,0.9-2,2.1-2.7,3.4
			c-0.8,1.3-1.4,2.7-1.9,4.2c-0.5,1.5-0.8,3.1-1.1,4.7c-0.1,0.8-0.2,1.7-0.3,2.4l-0.1,1.2l-0.1,1.3l0,0.7l0,0.3l0,0.1l0,0
			c0,0.2,0-0.2,0-0.2l0,0l0,0.2l0,1.4l0,2.7l0.1,5.4l0,2.7l0,1.4l0,0.3l0,0.2l0,0.1l0,0.2c0,0.5-0.1,1-0.2,1.6
			c-0.6,2.2-2.4,3.9-4.4,4.4c-1,0.3-2.2,0.3-3.2,0.1c-0.6-0.1-1-0.3-1.6-0.6c-0.3-0.2-0.6-0.4-0.9-0.6l-0.1-0.1l-0.1-0.1l-0.1-0.1
			l-0.1-0.1l-0.3-0.3l-0.1-0.1l-0.2-0.2l-0.5-0.5l-0.9-1l-1.9-1.9l-1.9-1.9l-0.9-1c-0.3-0.3-0.6-0.5-1.1-1.2c-1-1.2-1.6-2.7-1.9-4.2
			c0-0.2-0.1-0.4-0.1-0.6l0-0.4l0-0.3l0-0.8l0-1.4l-0.1-10.8l5.3,3.8c-0.4,0.1-0.6,0.2-0.8,0.2c-0.2,0.1-0.5,0.1-0.7,0.1
			c-0.5,0.1-0.9,0.1-1.4,0.2c-0.5,0-1,0-1.5,0c-0.2,0-0.5,0-0.8-0.1c-0.3,0-0.5-0.1-0.8-0.1c-0.5-0.1-1.1-0.3-1.6-0.5
			c-0.3-0.1-0.5-0.3-0.8-0.4c-0.3-0.1-0.5-0.3-0.7-0.5c-0.2-0.2-0.5-0.4-0.7-0.5c-0.2-0.2-0.4-0.4-0.6-0.6c-0.4-0.4-0.7-0.9-1-1.3
			l4.4,1.8l-1.4,0.3l-0.3,0.1l-0.3,0.1l-0.2,0l-0.8,0.1c-1.1,0.2-2.1,0.4-3.2,0.4l-1.6,0.1c-0.5,0-1.1,0-1.6,0c-0.5,0-1.1,0-1.6,0
			l-1.6-0.1c-1.1-0.1-2.2-0.3-3.2-0.5c-1.1-0.2-2.1-0.5-3.2-0.8c-1-0.4-2.1-0.7-3.1-1.2c-1-0.5-2-0.9-3-1.5l-1.4-0.9l-1.4-1
			c-0.9-0.6-1.7-1.5-2.6-2.2c-0.4-0.4-0.8-0.8-1.2-1.3c-0.4-0.4-0.8-0.9-1.1-1.3l-1-1.4c-0.3-0.5-0.6-1-0.9-1.5
			c-0.6-1-1.1-2.2-1.5-3.4c-0.1-0.3-0.2-0.6-0.2-0.8l-0.2-0.7l-0.2-0.7l-0.1-0.3l-0.1-0.5l0-0.2c-0.4-2.3-0.5-4.8-0.1-7.1l3.6,4.8
			l-0.8-0.1l-0.4-0.1l-0.2,0l-0.1,0l-0.3,0l0,0l0,0l-0.1,0c-0.7-0.2-1.4-0.3-2.1-0.6c-0.7-0.3-1.4-0.5-2-0.8c-0.7-0.3-1.3-0.6-1.9-1
			l-0.9-0.6l-0.9-0.7c-0.6-0.4-1.1-0.9-1.6-1.4c-0.5-0.5-1-1-1.4-1.6c-0.5-0.5-0.9-1.1-1.3-1.7C9.7,100,9.4,99.4,9,98.8
			c-0.3-0.6-0.6-1.2-0.9-1.8c-0.3-0.6-0.5-1.3-0.8-1.9c-0.2-0.6-0.4-1.3-0.6-1.9c-0.2-0.7-0.3-1.3-0.5-2c-0.1-0.7-0.2-1.3-0.3-2
			c-0.1-0.7-0.1-1.3-0.2-2l0-2l0.5,2c-1.2-2.3-2-4.7-2.5-7.2c-0.5-2.5-0.6-5-0.4-7.5c0.1-0.6,0.1-1.2,0.2-1.9
			c0.1-0.7,0.2-1.2,0.3-1.7L4,68l0.2-0.9c0.2-0.6,0.3-1.2,0.5-1.8c0.8-2.4,1.9-4.6,3.3-6.7L7.4,61l0-1.6c0-0.5,0.1-1.1,0.1-1.6
			c0.1-1,0.4-2.1,0.7-3.1c0.2-0.5,0.3-1,0.5-1.5c0.2-0.5,0.4-1,0.6-1.4c0.2-0.5,0.4-0.9,0.7-1.4c0.3-0.4,0.5-0.9,0.8-1.3
			c0.3-0.4,0.6-0.8,0.9-1.2c0.3-0.4,0.6-0.8,1-1.1c0.3-0.4,0.7-0.7,1-1.1c0.4-0.3,0.7-0.7,1.1-1c0.4-0.3,0.7-0.6,1.1-0.9
			c0.4-0.3,0.8-0.6,1.2-0.9c0.8-0.6,1.6-1.1,2.5-1.5L17.5,45c0-0.8,0.1-1.7,0.2-2.5c0.1-0.8,0.2-1.6,0.4-2.4
			c0.2-0.8,0.4-1.6,0.6-2.4c0.2-0.8,0.5-1.5,0.8-2.3c0.3-0.7,0.7-1.5,1-2.2c0.4-0.7,0.8-1.4,1.2-2.1c0.4-0.7,0.9-1.3,1.4-2
			c0.5-0.6,1-1.2,1.5-1.8c0.6-0.6,1.2-1.3,1.6-1.7l0.4-0.4l0.5-0.5c0.3-0.3,0.6-0.5,0.9-0.8c1.2-1,2.5-1.9,3.8-2.8
			c2.7-1.7,5.7-2.9,8.8-3.6l-2.4,1.9c1.7-3,3.9-5.6,6.5-7.7c0.6-0.5,1.3-1,2-1.5c0.7-0.5,1.4-0.9,2.1-1.3l1.1-0.6L51,8.1l1.1-0.4
			l1.2-0.4C54,7,54.8,6.7,55.6,6.5C56.4,6.3,57.2,6.2,58,6c1.6-0.3,3.3-0.4,4.9-0.4c0.8,0,1.7,0.1,2.5,0.2C66.2,6,67,6.1,67.9,6.3
			c0.8,0.2,1.6,0.4,2.4,0.7c0.8,0.3,1.6,0.6,2.4,0.9l-3.3,0.4c2-1.6,4.2-2.8,6.5-3.8c1.2-0.5,2.3-0.8,3.5-1.1
			c0.6-0.1,1.2-0.3,1.8-0.4c0.6-0.1,1.3-0.2,1.8-0.3c0.7-0.1,1.2-0.1,1.9-0.2c0.6,0,1.2-0.1,1.8,0c1.2,0,2.5,0.1,3.7,0.3
			c2.4,0.4,4.8,1,7.1,2.1l-1.7-0.2c2.8-0.6,5.7-0.8,8.6-0.8c1.4,0,2.9,0.1,4.3,0.3c0.7,0.1,1.5,0.2,2.1,0.3c0.7,0.1,1.4,0.3,2.1,0.4
			c5.5,1.2,10.9,3.5,15.4,7.1l-1.2-0.4c0.6,0,1.2,0,1.7,0.1c0.6,0.1,1.1,0.2,1.7,0.3c1.1,0.2,2.2,0.5,3.3,0.9
			c0.5,0.2,1.1,0.4,1.6,0.6c0.5,0.2,1,0.5,1.5,0.7c1,0.5,2,1.1,2.9,1.7c0.9,0.6,1.8,1.3,2.6,2c0.4,0.4,0.8,0.7,1.2,1.1
			c0.4,0.4,0.8,0.8,1.2,1.2c0.4,0.4,0.7,0.7,1.1,1.2c0.3,0.4,0.7,0.9,1,1.3c0.6,0.9,1.2,1.8,1.8,2.8l-0.5-0.5c2.6,1.3,4.9,3,6.8,4.9
			c0.5,0.5,1,1,1.4,1.5c0.4,0.6,0.9,1.1,1.3,1.7c0.4,0.6,0.8,1.1,1.1,1.7c0.4,0.6,0.7,1.2,1,1.8c0.3,0.6,0.6,1.3,0.8,1.9
			c0.3,0.6,0.5,1.3,0.7,2c0.2,0.7,0.4,1.3,0.5,2l0.2,1l0.1,1c0.1,0.7,0.1,1.4,0.1,2.1l0,1l-0.1,1c-0.1,0.7-0.2,1.3-0.4,2
			C161.3,51.5,161.1,52.2,160.8,52.8z"/>
	</g>
</g>
<path d="M79.2,61c3.5-2.2,6.9-4.5,10.4-6.7c0.9-0.5,2.2-0.3,3.3-0.5c-0.5,0.9-0.9,1.9-1.6,2.6c-6.6,5.4-13.3,10.8-20,16.1
	c-1.7,1.4-3.5,2.8-5.3,4.2c0.3,0.3,0.6,0.6,0.8,0.9c8.9-6.9,17.8-13.8,26.7-20.8c0.3,0.3,0.6,0.7,1,1c-2.8,7.9-9.9,12.5-15.2,18.7
	c5-3.8,10-7.6,15-11.4c0.5,0.5,1,1,1.5,1.5c-3.3,3.6-6.7,7.2-10,10.8c0.1,0.1,0.2,0.2,0.3,0.3c1.8-1.2,3.5-2.3,5.3-3.5
	c0.3,0.3,0.6,0.6,0.9,0.8c-1.8,5.2-7.2,7.7-10.2,12.3c2.1-1.4,4.3-2.8,6.4-4.2c0.4,0.4,0.8,0.7,1.1,1.1c-1.4,1.5-2.8,3.1-4.4,4.8
	c3.7,1.2,1.6,2.7,0.1,4.2c-7.5,7.1-14.8,14.3-22.6,21c-1.7,1.5-5,3.7-8.2,1.1c-0.7-0.5-2.1-0.2-3.9-0.3c1.2-2.2,2.2-4,2.7-4.9
	c-0.5-2.2-0.8-3.7-1.2-5.2c-0.9,0.2-2.3,0.6-3.8,1.1c-0.7-1.8-1.3-3.3-1.9-4.9c-1.6,0.8-3,1.6-4.9,2.6C40.2,95.3,42.7,88.5,47,82
	c-0.3-0.2-0.7-0.3-1-0.5c-1.5,2.3-3,4.6-4.6,6.8c-1.2,1.7-1.4,5.6-5.3,2.5c-0.4-0.3-1.9,0.6-3.9,0.5c0.9-1.9,1.8-3.7,2.9-6.1
	c-2.2,1.5-4.1,2.8-6.1,4c-0.3-0.2-0.6-0.3-0.9-0.5c1.3-3.8-2.1-8.2,2.3-11.8c-2.4,1.5-4.9,3.1-7.3,4.6c-0.3-0.3-0.5-0.6-0.8-0.9
	c0.4-1.2,0.8-2.3,1.4-4c-2.2,1.7-4,3-6.5,4.9c0.4-3.5,0.7-6.2,1-9c-1.3,0.5-2.3,1-4.4,1.8c0.9-2.4,1.4-3.9,2-5.4
	C12.1,65,14.2,58.2,19.5,56c2.8-1.2,4.9-3.7,7.4-5.6c2.2-1.7,5.8-0.8,6.6,0.5c3.1,0.3,5.5,0.6,8.4,0.9c-1.2,1.9-1.9,3.1-3.2,5.2
	c2.9-1.9,4.9-3.2,6.9-4.5c0.3,0.3,0.7,0.6,1,0.9c-0.6,1.1-1,2.3-1.8,3.2c-3.1,3.7-6.5,7.3-9.5,11c-0.9,1-1.1,2.5-1.6,3.8
	c0.3,0.2,0.7,0.3,1,0.5c0.9-1.1,1.8-2.2,2.7-3.3c0.5-0.6,1.1-1.6,1.5-1.5c5.2,1.1,6.7-3.9,10.2-5.5c0.8-0.4,1.5-0.8,2.2-1.2
	c0.3,0.2,0.7,0.4,1,0.6c-0.6,1.1-1,2.3-1.8,3.1c-4.1,4.2-8.3,8.3-12.4,12.5c-0.9,0.9-1.7,2-2,3.6c1.8-1.8,3.6-3.6,5.5-5.3
	c3.9-3.5,7.7-7.1,11.8-10.5c1-0.8,2.7-0.7,4.4-0.4C63.2,60,68.6,55.8,74,51.7c0.1-0.1,0.6,0.3,1.8,0.8c-4.1,4.2-8.1,8.3-12,12.3
	c0.2,0.2,0.5,0.5,0.7,0.7c2.5-2.1,4.9-4.3,7.5-6.2c1.1-0.8,2.8-0.9,4.2-1.5c1.1-0.5,2.1-1.1,3.2-1.8c2.3-1.4,4.6-2.9,6.9-4.4
	c0.3,0.4,0.7,0.8,1,1.3C84.6,55.7,81.9,58.4,79.2,61c-4.4,3.9-8.9,7.8-13.4,11.6c0.1,0.1,0.1,0.2,0.2,0.2C70.4,68.9,74.8,65,79.2,61
	z M51.5,82.9c-0.2-0.2-0.4-0.4-0.6-0.6c-4.4,2.5-11.2,9.2-11.5,10.8C43.1,90,47.3,86.4,51.5,82.9z"/>
</svg>
