<?xml version="1.0" encoding="utf-8"?>
<!-- Generator: Adobe Illustrator 18.0.0, SVG Export Plug-In . SVG Version: 6.00 Build 0)  -->
<!DOCTYPE svg PUBLIC "-//W3C//DTD SVG 1.1//EN" "http://www.w3.org/Graphics/SVG/1.1/DTD/svg11.dtd">
<svg version="1.1" id="Layer_1" xmlns="http://www.w3.org/2000/svg" xmlns:xlink="http://www.w3.org/1999/xlink" x="0px" y="0px"
	 viewBox="0 0 20 20" enable-background="new 0 0 20 20" xml:space="preserve">
<g id="Layer_2">
	<g>
		<circle fill="#FFCC00" cx="10" cy="10" r="10"/>
		<g>
			<g>
				<g>
					<defs>
						<circle id="SVGID_1_" cx="10" cy="10" r="10"/>
					</defs>
					<clipPath id="SVGID_2_">
						<use xlink:href="#SVGID_1_"  overflow="visible"/>
					</clipPath>
					<polygon clip-path="url(#SVGID_2_)" fill="#212121" points="3.2,15 8.1,20 20,20 20,8.2 16.9,5.1 					"/>
				</g>
			</g>
		</g>
		<g>
			<path fill="#FFFFFF" d="M16.4,15.2H3.6c-0.3,0-0.6-0.3-0.6-0.6V5.5c0-0.3,0.3-0.6,0.6-0.6h12.8c0.3,0,0.6,0.3,0.6,0.6v9
				C17,14.9,16.7,15.2,16.4,15.2z"/>
			<path d="M16.4,15.4c0,0-3,0-7.4,0c-1.1,0-2.3,0-3.6,0c-0.3,0-0.6,0-1,0l-0.5,0c-0.2,0-0.3,0-0.6-0.1C3.1,15.2,3,15,2.9,14.8
				c0-0.1-0.1-0.2-0.1-0.3l0-0.3c0-0.3,0-0.7,0-1c0-1.4,0-2.8,0-4.3c0-0.7,0-1.5,0-2.2l0-1.1C2.8,5.2,3.1,4.7,3.6,4.7c3,0,6,0,8.7,0
				c1.4,0,2.7,0,4,0c0.3,0,0.7,0.3,0.7,0.6c0,0.3,0,0.6,0,0.9c0,0.6,0,1.2,0,1.7c0,2.2,0,4.1,0,5.4c0,0.3,0,0.6,0,0.9
				c0,0.3,0,0.5-0.2,0.6c-0.3,0.3-0.5,0.2-0.5,0.2V15.4z M16.4,15.2c0,0,0.2,0,0.5-0.2c0.1-0.1,0.2-0.3,0.2-0.6c0-0.3,0-0.5,0-0.9
				c0-1.3,0-3.2,0-5.4c0-0.6,0-1.1,0-1.7c0-0.3,0-0.6,0-0.9c0-0.3-0.3-0.5-0.6-0.5c-1.3,0-2.6,0-4,0c-2.8,0-5.8,0-8.7,0
				C3.3,5,3,5.3,3.1,5.6l0,1.1c0,0.7,0,1.5,0,2.2c0,1.5,0,2.9,0,4.3c0,0.3,0,0.7,0,1c0,0.2,0,0.3,0,0.4c0.1,0.1,0.2,0.2,0.3,0.3
				c0.1,0,0.3,0,0.4,0l0.5,0c0.3,0,0.7,0,1,0c1.3,0,2.5,0,3.6,0c4.5,0,7.4,0,7.4,0V15.2z"/>
		</g>
		<g>
			<g>
				<path fill="#E1E3E9" d="M17,6.6V5.5c0-0.3-0.3-0.6-0.6-0.6H3.6C3.3,4.8,3,5.1,3,5.5v1.1H17z"/>
				<path d="M16.8,6.6l0-1.1c0-0.3-0.2-0.5-0.5-0.5l-2.1,0L10,5L5.8,5L3.6,5c-0.3,0-0.6,0.2-0.6,0.5l0,1.1L3,6.5L16.8,6.6z
					 M17.2,6.6l-0.2,0L3,6.7l-0.1,0l0-0.1l0-1.1c0-0.4,0.4-0.8,0.8-0.8l2.1,0l4.2,0l4.2,0l2.1,0c0.5-0.1,0.9,0.4,0.9,0.9L17.2,6.6z"
					/>
			</g>
		</g>
		<circle fill="#F24B45" cx="3.9" cy="5.7" r="0.5"/>
		<circle fill="#FFB202" cx="5.3" cy="5.7" r="0.5"/>
		<circle fill="#4CBB41" cx="6.7" cy="5.7" r="0.5"/>
		<g>
			<g>
				<g>
					<defs>
						<path id="SVGID_3_" d="M16.4,15.2H3.6c-0.3,0-0.6-0.3-0.6-0.6V5.5c0-0.3,0.3-0.6,0.6-0.6h12.8c0.3,0,0.6,0.3,0.6,0.6v9
							C17,14.9,16.7,15.2,16.4,15.2z"/>
					</defs>
					<clipPath id="SVGID_4_">
						<use xlink:href="#SVGID_3_"  overflow="visible"/>
					</clipPath>
					<polygon opacity="0.8" clip-path="url(#SVGID_4_)" fill="#EAEBEF" enable-background="new    " points="4.8,11.1 9,15.2 
						17.2,15.2 17.2,12.4 15.2,10.4 13.2,10 11.2,8 10.1,10.5 8.4,8.8 5,10.8 					"/>
				</g>
			</g>
		</g>
		<g>
			<path fill="#333333" d="M4.8,10.4l3.5-1.6v0.8l-2.7,1.2v0l2.7,1.2v0.8l-3.5-1.6V10.4z"/>
			<path fill="#333333" d="M8.9,13.3L10.5,8h0.7l-1.6,5.3H8.9z"/>
			<path fill="#333333" d="M15.2,11.1l-3.5,1.6v-0.8l2.7-1.2v0l-2.7-1.2V8.8l3.5,1.6V11.1L15.2,11.1z"/>
		</g>
	</g>
</g>
</svg>
