<?xml version="1.0" encoding="utf-8"?>
<!-- Generator: Adobe Illustrator 18.0.0, SVG Export Plug-In . SVG Version: 6.00 Build 0)  -->
<!DOCTYPE svg PUBLIC "-//W3C//DTD SVG 1.1//EN" "http://www.w3.org/Graphics/SVG/1.1/DTD/svg11.dtd">
<svg version="1.1" id="Layer_1" xmlns="http://www.w3.org/2000/svg" xmlns:xlink="http://www.w3.org/1999/xlink" x="0px" y="0px"
	 viewBox="0 0 512 512" enable-background="new 0 0 512 512" xml:space="preserve">
<path d="M255.3,199.5c0-0.8-0.6-1.5-1.4-1.6l-0.6-0.1l-8.2-6.1c-1.6-1.2-3.6-1.6-5.5-1c-0.7,0.2-1.1,0.9-0.9,1.6
	c0.2,0.7,0.9,1.1,1.6,0.9c1.2-0.3,2.4-0.1,3.3,0.6l4.9,3.6c-1,0-2,0.1-3,0.2c-1.5,0.2-3.1,0.5-4.6,1l-0.8,0.2c-3,0.6-6.1,0.6-9.2,0
	l-0.9-0.2c-1.5-0.4-3.1-0.8-4.6-1c-1-0.1-2-0.2-3-0.2l4.9-3.6c1-0.7,2.2-0.9,3.3-0.6c0.7,0.2,1.4-0.2,1.6-0.9
	c0.2-0.7-0.2-1.4-0.9-1.6c-1.9-0.5-3.9-0.1-5.5,1l-8.2,6.1l-0.6,0.1c-0.8,0.1-1.4,0.8-1.4,1.6l-0.1,1.4c0,0.7,0.4,1.3,0.9,1.5
	c0.2,0.1,0.4,0.3,0.4,0.6l0.2,2.7c0.3,3.3,3,5.8,6.3,5.9l3,0.1c2.3,0,4.3-1.2,5.5-3.1l2.4-4.3c0.2-0.2,0.6-0.3,1-0.3
	c0,0,0.2,0,0.2,0c0.4,0,0.8,0.1,1,0.3l2.5,4.4c1.2,1.9,3.3,3.1,5.5,3.1l3-0.1c3.3-0.1,6-2.6,6.3-5.9l0.2-2.7c0-0.2,0.2-0.4,0.3-0.5
	c0.6-0.2,1-0.9,1-1.6L255.3,199.5z M247.5,200.4c0.5,0,0.9,0,1.2,0.1c1.1,0.1,2.2,0.9,2.3,2.1l0.1,2.8c0,0.9-0.3,1.9-0.9,2.6
	c-0.6,0.7-1.5,1.1-2.5,1.1c0,0-2.4,0.1-2.5,0.1c-4.3,0-5.6-4.3-5.6-4.5c-0.2-0.8-0.1-1.7,0.4-2.4c0.5-0.7,1.2-1.2,2-1.3
	C244.3,200.6,246.2,200.4,247.5,200.4z M225.5,209.2c-0.1,0-2.5-0.1-2.5-0.1c-0.9,0-1.8-0.4-2.5-1.1c-0.6-0.7-1-1.6-0.9-2.6l0.1-2.8
	c0-1.3,1.2-2,2.3-2.1c1.3-0.2,3.6,0,6.8,0.5c0.8,0.1,1.6,0.6,2,1.3c0.5,0.7,0.6,1.6,0.4,2.4C231,204.8,229.8,209.2,225.5,209.2z"/>
</svg>
