<?xml version="1.0" encoding="utf-8"?>
<!-- Generator: Adobe Illustrator 18.0.0, SVG Export Plug-In . SVG Version: 6.00 Build 0)  -->
<!DOCTYPE svg PUBLIC "-//W3C//DTD SVG 1.1//EN" "http://www.w3.org/Graphics/SVG/1.1/DTD/svg11.dtd">
<svg version="1.1" id="Layer_1" xmlns="http://www.w3.org/2000/svg" xmlns:xlink="http://www.w3.org/1999/xlink" x="0px" y="0px"
	 viewBox="0 0 20 20" enable-background="new 0 0 20 20" xml:space="preserve">
<g>
	<path d="M10.2,19c-0.5-0.5-1-0.9-1.3-1.3c-1.4-1.8-3-3.4-4.8-4.8C2,11.4,0.6,9.3,0.5,6.7C0.4,4.6,1,2.9,2.9,1.9
		c1.8-1,3.6-0.9,5.3,0.3c0.6,0.5,1.1,1.1,1.7,1.8c0.5-0.5,1.1-1,1.7-1.6c1-0.9,2.2-1.4,3.6-1.3c2.8,0.2,4.6,2.5,4.4,5.5
		c-0.1,1.8-0.8,3.3-1.9,4.6c-1.1,1.2-2.3,2.5-3.6,3.5c-1.1,0.9-2.1,1.9-2.9,3C10.9,18.1,10.6,18.5,10.2,19z M10.1,17.5
		c1.5-1.5,3.1-2.8,4.4-4.3c1-1.1,1.9-2.3,2.8-3.6c0.8-1.2,1.2-2.7,1.1-4.2c-0.1-2.2-2-3.8-4.1-3.3c-1.7,0.4-3.2,1.3-4.2,2.9
		C10.1,5.1,10,5.2,9.9,5.3C9.7,5.1,9.5,4.8,9.3,4.7C8.7,4,8.1,3.3,7.4,2.8C5.2,1.3,2.4,2.4,1.8,5C1.1,7.6,1.9,9.8,4,11.5
		C6.2,13.3,8.4,15,10.1,17.5z M16.1,12.3c2.6-2.2,3.6-5.4,2.8-7.3C19.2,7.9,17.7,10.1,16.1,12.3z M0.8,6.8c0.1,0,0.1,0,0.2,0
		c0.2-1,0.4-2,0.6-3c-0.1,0-0.1,0-0.2,0C1.2,4.8,1,5.8,0.8,6.8z"/>
	<path d="M14.2,5.3c0.6-0.4,1.2-0.8,1.9-1.2C16.2,4,16.4,4.1,16.6,4c-0.1,0.2-0.2,0.4-0.3,0.5c-1.2,1-2.4,2-3.6,3
		c-0.3,0.3-0.6,0.5-0.9,0.8c0.1,0.1,0.1,0.1,0.2,0.2c1.6-1.3,3.2-2.6,4.7-3.9c0.1,0.1,0.1,0.1,0.2,0.2c-0.5,1.5-1.8,2.3-2.7,3.5
		c0.9-0.7,1.8-1.4,2.7-2.1c0.1,0.1,0.2,0.2,0.3,0.3c-0.6,0.7-1.2,1.3-1.8,2c0,0,0,0,0.1,0.1C15.7,8.2,16,8,16.3,7.8
		c0.1,0.1,0.1,0.1,0.2,0.2c-0.3,1-1.3,1.4-1.8,2.3c0.4-0.3,0.8-0.5,1.1-0.8c0.1,0.1,0.1,0.1,0.2,0.2c-0.2,0.3-0.5,0.6-0.8,0.9
		c0.7,0.2,0.3,0.5,0,0.8c-1.3,1.3-2.6,2.7-4,3.9c-0.3,0.3-0.9,0.7-1.5,0.2c-0.1-0.1-0.4,0-0.7,0c0.2-0.4,0.4-0.7,0.5-0.9
		c-0.1-0.4-0.2-0.7-0.2-1c-0.2,0-0.4,0.1-0.7,0.2c-0.1-0.3-0.2-0.6-0.3-0.9c-0.3,0.2-0.5,0.3-0.9,0.5c-0.2-1.5,0.2-2.8,1-4
		c-0.1,0-0.1-0.1-0.2-0.1C8,9.6,7.7,10,7.4,10.4c-0.2,0.3-0.2,1-1,0.5C6.4,10.8,6.2,11,5.8,11c0.2-0.3,0.3-0.7,0.5-1.1
		c-0.4,0.3-0.7,0.5-1.1,0.7c-0.1,0-0.1-0.1-0.2-0.1C5.3,9.8,4.7,9,5.5,8.3C5.1,8.6,4.6,8.9,4.2,9.2C4.2,9.1,4.1,9,4.1,9
		c0.1-0.2,0.1-0.4,0.2-0.7C3.9,8.6,3.6,8.8,3.2,9.1C3.2,8.5,3.3,8,3.3,7.5C3.1,7.6,2.9,7.7,2.6,7.8c0.2-0.4,0.2-0.7,0.3-1
		c-0.7-0.7-0.3-2,0.6-2.4c0.5-0.2,0.9-0.7,1.3-1c0.4-0.3,1-0.2,1.2,0.1c0.6,0.1,1,0.1,1.5,0.2C7.3,4,7.2,4.3,7,4.6
		C7.5,4.3,7.9,4,8.2,3.8C8.3,3.8,8.3,3.9,8.4,4C8.3,4.2,8.2,4.4,8.1,4.6c-0.6,0.7-1.1,1.4-1.7,2C6.2,6.8,6.2,7.1,6.1,7.3
		c0.1,0,0.1,0.1,0.2,0.1C6.4,7.2,6.6,7,6.8,6.8C6.8,6.7,7,6.5,7,6.5c0.9,0.2,1.2-0.7,1.8-1C9,5.4,9.1,5.3,9.2,5.2
		c0.1,0,0.1,0.1,0.2,0.1C9.3,5.5,9.2,5.8,9.1,5.9C8.4,6.7,7.6,7.5,6.9,8.3C6.7,8.4,6.6,8.6,6.6,8.9c0.3-0.3,0.6-0.7,1-1
		C8.2,7.3,8.9,6.6,9.6,6c0.2-0.2,0.5-0.1,0.8-0.1c1-0.8,1.9-1.5,2.8-2.3c0,0,0.1,0.1,0.3,0.1c-0.7,0.8-1.4,1.5-2.1,2.3
		c0,0,0.1,0.1,0.1,0.1C12,5.8,12.4,5.4,12.9,5c0.2-0.2,0.5-0.2,0.7-0.3c0.2-0.1,0.4-0.2,0.6-0.3c0.4-0.3,0.8-0.5,1.2-0.8
		c0.1,0.1,0.1,0.2,0.2,0.2C15.1,4.3,14.7,4.9,14.2,5.3c-0.8,0.7-1.6,1.4-2.4,2.2c0,0,0,0,0,0C12.6,6.8,13.4,6.1,14.2,5.3z"/>
</g>
</svg>
