<?xml version="1.0" encoding="utf-8"?>
<!-- Generator: Adobe Illustrator 18.0.0, SVG Export Plug-In . SVG Version: 6.00 Build 0)  -->
<!DOCTYPE svg PUBLIC "-//W3C//DTD SVG 1.1//EN" "http://www.w3.org/Graphics/SVG/1.1/DTD/svg11.dtd">
<svg version="1.1" id="Layer_1" xmlns="http://www.w3.org/2000/svg" xmlns:xlink="http://www.w3.org/1999/xlink" x="0px" y="0px"
	 viewBox="0 0 20 20" enable-background="new 0 0 20 20" xml:space="preserve">
<path fill="#FFCC00" d="M10,0C4.5,0,0,4.5,0,10s4.5,10,10,10s10-4.5,10-10S15.6,0,10,0z"/>
<g>
	<g>
		<g>
			<path fill="#212121" d="M6.6,13.7l5.9,6.1l3.3-1.1c0.4-0.1,0.7-0.3,1-0.5l3.2-2.1L19.9,3.6L18.6,5L6.6,13.7z"/>
		</g>
	</g>
</g>
<path fill="#FFFFFF" d="M18.6,4.9c-0.8-1.4-2-2.6-3.4-3.4C12.5,4.3,7.7,9,7.6,9.1c-0.3,0.3-1.1,4.3-1,4.4c0.2,0.2,4.1-0.8,4.3-1.1
	C11,12.5,18.6,4.9,18.6,4.9z"/>
<g>
	<path fill="#FFFFFF" d="M9.3,10.8c-0.2-0.2-0.2-1.1-0.4-1.3C8.7,9.3,7.6,9.1,7.6,9.1c-0.3,0.3-1.1,3.9-1,4.4l0.1,0.1
		c0.5,0.1,4.1-0.8,4.3-1.1c0,0-0.2-1.1-0.4-1.3C10.4,11.1,9.5,11,9.3,10.8z"/>
	<path d="M9.3,10.8c-0.1-0.1-0.1-0.2-0.1-0.3l-0.1-0.3C9,10.1,9,10,9,9.9c0-0.1-0.1-0.2-0.1-0.3C8.7,9.5,8.4,9.5,8.2,9.4L7.6,9.3
		l0.2-0.1c0,0.1-0.1,0.3-0.2,0.4l-0.2,0.5l-0.3,1.1C7,11.7,6.9,12,6.8,12.4c0,0.2-0.1,0.4-0.1,0.6c0,0.2,0,0.4,0,0.5l0-0.1l0.1,0.1
		l-0.1,0c0.1,0,0.3,0,0.5-0.1l0.5-0.1L8.9,13l1.1-0.3l0.5-0.2l0.3-0.1c0.1,0,0.2-0.1,0.2-0.1l-0.1,0.2l-0.1-0.7
		c0-0.2-0.1-0.5-0.2-0.6l0,0c-0.1-0.1-0.2-0.1-0.3-0.1c-0.1,0-0.2-0.1-0.3-0.1C9.7,11,9.5,11,9.3,10.8z M9.3,10.8
		C9.5,10.9,9.7,11,10,11l0.3,0c0.1,0,0.2,0,0.4,0.1l0,0l0,0c0.1,0.1,0.2,0.2,0.2,0.3c0.1,0.1,0.1,0.2,0.1,0.3
		c0.1,0.2,0.2,0.4,0.2,0.7l0,0.1l-0.1,0.1c-0.1,0.1-0.2,0.1-0.3,0.2l-0.3,0.1c-0.2,0.1-0.4,0.1-0.5,0.2c-0.4,0.1-0.7,0.2-1.1,0.3
		c-0.4,0.1-0.7,0.2-1.1,0.2c-0.2,0-0.4,0.1-0.6,0.1c-0.2,0-0.4,0-0.6,0l0,0l0,0l-0.1-0.1l0,0l0,0c0-0.2,0-0.4,0.1-0.6l0.1-0.6
		c0.1-0.4,0.1-0.7,0.2-1.1C7,10.9,7,10.5,7.1,10.1c0-0.2,0.1-0.4,0.1-0.6C7.3,9.4,7.3,9.2,7.5,9l0.1-0.1l0.1,0
		C7.9,9,8.1,9.1,8.3,9.1c0.1,0,0.2,0.1,0.3,0.1C8.7,9.3,8.9,9.4,9,9.5C9,9.6,9.1,9.7,9.1,9.8l0,0.3C9.2,10.4,9.2,10.6,9.3,10.8z"/>
</g>
<path fill="#CCCCCC" d="M6.6,13.5L6.6,13.5L6.6,13.5c0.5,0.2,4.1-0.7,4.4-1c0,0-0.2-1.1-0.4-1.3C7.2,13.2,6.7,13.5,6.6,13.5z"/>
<path display="none" fill="#FFDCD2" d="M6.6,13.5c0.1-0.1,0.4-0.7,2.2-3.9C8.7,9.3,7.6,9.1,7.6,9.1C7.4,9.4,6.6,12.9,6.6,13.5z"/>
<path d="M7.3,12.8c-0.1-0.1-0.4-0.2-0.6-0.3c-0.1,0.6-0.1,1-0.1,1c0.1,0.1,0.4,0,0.9-0.1C7.6,13.2,7.5,13,7.3,12.8z"/>
<g>
	<path fill="#FFFFFF" d="M7.7,9c0,0,1,0.2,1.2,0.4l7.2-7.2c-0.3-0.3-0.6-0.5-1-0.7C15.2,1.5,7.7,9,7.7,9z"/>
	<path d="M7.7,8.9C7.9,9,8.1,9,8.3,9.1c0.1,0,0.2,0.1,0.3,0.1c0.1,0,0.2,0.1,0.3,0.2l-0.2,0C9.4,8.7,10,8,10.6,7.4
		c0.6-0.6,1.2-1.2,1.8-1.8c1.3-1.1,2.5-2.3,3.6-3.6l0,0.2l-1-0.6l0.2-0.3c0,0,0,0.1,0,0.2c-0.1,0.1-0.1,0.1-0.1,0.1l-0.1,0.1
		l-0.2,0.2l-0.5,0.5l-0.9,1c-0.6,0.6-1.2,1.3-1.9,1.9C10.3,6.6,9.1,7.8,7.7,8.9z M7.7,8.9c1.2-1.3,2.4-2.6,3.6-3.9
		c0.6-0.6,1.2-1.3,1.9-1.9l0.9-0.9l0.5-0.5l0.2-0.2l0.1-0.1c0,0,0-0.1,0,0c0,0,0,0.1,0.1,0.1l0.2-0.3l1,0.7l0.1,0.1l-0.1,0.1
		c-1.3,1.1-2.4,2.4-3.6,3.6c-0.6,0.6-1.2,1.2-1.8,1.8C10.3,8.3,9.6,8.9,9,9.4L8.9,9.5L8.8,9.4c0,0-0.2-0.1-0.2-0.1
		c-0.1,0-0.2-0.1-0.3-0.1L7.7,8.9L7.7,8.9z"/>
</g>
<g>
	<path fill="#FFFFFF" d="M17.9,3.9l-7.4,7.4c0.2,0.2,0.4,1.3,0.4,1.3l7.6-7.6C18.4,4.5,18.2,4.2,17.9,3.9z"/>
	<path d="M17.9,3.9c-0.6,0.7-1.1,1.3-1.7,1.9c-0.6,0.6-1.2,1.3-1.8,1.9c-0.6,0.6-1.3,1.2-1.9,1.8c-0.6,0.6-1.3,1.2-1.9,1.8l0-0.1
		c0.1,0.1,0.1,0.2,0.2,0.3l0.1,0.3c0.1,0.2,0.1,0.4,0.2,0.7l-0.2-0.1c2.4-2.6,5-5.2,7.6-7.6l0,0.1L17.9,3.9z M17.9,3.8l0.8,1l0,0.1
		l-0.1,0.1c-2.4,2.7-5,5.2-7.6,7.6l-0.2,0.1l0-0.2c0-0.2-0.1-0.4-0.1-0.6c-0.1-0.2-0.1-0.4-0.2-0.6l0-0.1l0,0
		c0.6-0.6,1.2-1.2,1.8-1.9c0.6-0.6,1.2-1.3,1.8-1.9c0.6-0.6,1.2-1.2,1.9-1.8C16.6,5,17.3,4.4,17.9,3.8L17.9,3.8z"/>
</g>
</svg>
